<svg width="15" height="16" viewBox="0 0 15 16" fill="none" xmlns="http://www.w3.org/2000/svg">
<path d="M1.77702 16C1.46591 16 1.19368 15.88 0.960352 15.64C0.727018 15.4 0.610352 15.12 0.610352 14.8V2.4C0.610352 2.08 0.727018 1.8 0.960352 1.56C1.19368 1.32 1.46591 1.2 1.77702 1.2H3.04091V0H4.3048V1.2H10.9159V0H12.1798V1.2H13.4437C13.7548 1.2 14.027 1.32 14.2604 1.56C14.4937 1.8 14.6104 2.08 14.6104 2.4V14.8C14.6104 15.12 14.4937 15.4 14.2604 15.64C14.027 15.88 13.7548 16 13.4437 16H1.77702ZM1.77702 14.8H13.4437V6.2H1.77702V14.8ZM1.77702 5H13.4437V2.4H1.77702V5ZM7.61035 9.6C7.38998 9.6 7.20526 9.52333 7.05619 9.37C6.90711 9.21667 6.83257 9.02667 6.83257 8.8C6.83257 8.57333 6.90711 8.38333 7.05619 8.23C7.20526 8.07667 7.38998 8 7.61035 8C7.83072 8 8.01544 8.07667 8.16452 8.23C8.31359 8.38333 8.38813 8.57333 8.38813 8.8C8.38813 9.02667 8.31359 9.21667 8.16452 9.37C8.01544 9.52333 7.83072 9.6 7.61035 9.6ZM4.49924 9.6C4.27887 9.6 4.09415 9.52333 3.94507 9.37C3.796 9.21667 3.72146 9.02667 3.72146 8.8C3.72146 8.57333 3.796 8.38333 3.94507 8.23C4.09415 8.07667 4.27887 8 4.49924 8C4.71961 8 4.90433 8.07667 5.05341 8.23C5.20248 8.38333 5.27702 8.57333 5.27702 8.8C5.27702 9.02667 5.20248 9.21667 5.05341 9.37C4.90433 9.52333 4.71961 9.6 4.49924 9.6ZM10.7215 9.6C10.5011 9.6 10.3164 9.52333 10.1673 9.37C10.0182 9.21667 9.94369 9.02667 9.94369 8.8C9.94369 8.57333 10.0182 8.38333 10.1673 8.23C10.3164 8.07667 10.5011 8 10.7215 8C10.9418 8 11.1266 8.07667 11.2756 8.23C11.4247 8.38333 11.4992 8.57333 11.4992 8.8C11.4992 9.02667 11.4247 9.21667 11.2756 9.37C11.1266 9.52333 10.9418 9.6 10.7215 9.6ZM7.61035 12.8C7.38998 12.8 7.20526 12.7233 7.05619 12.57C6.90711 12.4167 6.83257 12.2267 6.83257 12C6.83257 11.7733 6.90711 11.5833 7.05619 11.43C7.20526 11.2767 7.38998 11.2 7.61035 11.2C7.83072 11.2 8.01544 11.2767 8.16452 11.43C8.31359 11.5833 8.38813 11.7733 8.38813 12C8.38813 12.2267 8.31359 12.4167 8.16452 12.57C8.01544 12.7233 7.83072 12.8 7.61035 12.8ZM4.49924 12.8C4.27887 12.8 4.09415 12.7233 3.94507 12.57C3.796 12.4167 3.72146 12.2267 3.72146 12C3.72146 11.7733 3.796 11.5833 3.94507 11.43C4.09415 11.2767 4.27887 11.2 4.49924 11.2C4.71961 11.2 4.90433 11.2767 5.05341 11.43C5.20248 11.5833 5.27702 11.7733 5.27702 12C5.27702 12.2267 5.20248 12.4167 5.05341 12.57C4.90433 12.7233 4.71961 12.8 4.49924 12.8ZM10.7215 12.8C10.5011 12.8 10.3164 12.7233 10.1673 12.57C10.0182 12.4167 9.94369 12.2267 9.94369 12C9.94369 11.7733 10.0182 11.5833 10.1673 11.43C10.3164 11.2767 10.5011 11.2 10.7215 11.2C10.9418 11.2 11.1266 11.2767 11.2756 11.43C11.4247 11.5833 11.4992 11.7733 11.4992 12C11.4992 12.2267 11.4247 12.4167 11.2756 12.57C11.1266 12.7233 10.9418 12.8 10.7215 12.8Z" fill="#667085"/>
</svg>
