<svg width="26" height="26" viewBox="0 0 26 26" fill="none" xmlns="http://www.w3.org/2000/svg">
<rect width="26" height="26" rx="4" fill="#FFF3E8"/>
<path d="M12.9997 15.0715C13.7168 15.0715 14.3254 14.832 14.8254 14.3531C15.3254 13.8741 15.5754 13.2912 15.5754 12.6042C15.5754 11.9172 15.3254 11.3342 14.8254 10.8552C14.3254 10.3763 13.7168 10.1368 12.9997 10.1368C12.2825 10.1368 11.6739 10.3763 11.1739 10.8552C10.6739 11.3342 10.4239 11.9172 10.4239 12.6042C10.4239 13.2912 10.6739 13.8741 11.1739 14.3531C11.6739 14.832 12.2825 15.0715 12.9997 15.0715ZM12.9997 14.2297C12.5249 14.2297 12.1234 14.0725 11.7951 13.758C11.4668 13.4436 11.3027 13.0589 11.3027 12.6042C11.3027 12.1494 11.4668 11.7648 11.7951 11.4503C12.1234 11.1358 12.5249 10.9786 12.9997 10.9786C13.4744 10.9786 13.8759 11.1358 14.2042 11.4503C14.5325 11.7648 14.6966 12.1494 14.6966 12.6042C14.6966 13.0589 14.5325 13.4436 14.2042 13.758C13.8759 14.0725 13.4744 14.2297 12.9997 14.2297ZM12.9997 16.9583C11.5249 16.9583 10.1916 16.5568 8.99967 15.7537C7.80776 14.9506 6.91887 13.9007 6.33301 12.6042C6.91887 11.3076 7.80776 10.2578 8.99967 9.45465C10.1916 8.65155 11.5249 8.25 12.9997 8.25C14.4744 8.25 15.8078 8.65155 16.9997 9.45465C18.1916 10.2578 19.0805 11.3076 19.6663 12.6042C19.0805 13.9007 18.1916 14.9506 16.9997 15.7537C15.8078 16.5568 14.4744 16.9583 12.9997 16.9583ZM12.9997 16.0875C14.2219 16.0875 15.3456 15.7706 16.3709 15.1368C17.3961 14.5031 18.1764 13.6588 18.7118 12.6042C18.1764 11.5495 17.3961 10.7053 16.3709 10.0715C15.3456 9.43772 14.2219 9.12083 12.9997 9.12083C11.7775 9.12083 10.6537 9.43772 9.62846 10.0715C8.60321 10.7053 7.81786 11.5495 7.2724 12.6042C7.81786 13.6588 8.60321 14.5031 9.62846 15.1368C10.6537 15.7706 11.7775 16.0875 12.9997 16.0875Z" fill="#FF9330"/>
</svg>
