<svg width="26" height="27" viewBox="0 0 26 27" fill="none" xmlns="http://www.w3.org/2000/svg">
<g clip-path="url(#clip0_502_48)">
<rect y="0.210815" width="26" height="25.811" rx="4" fill="#EAF2F0"/>
<path d="M6.15942 21.1163C5.85024 21.1163 5.57971 21.0005 5.34783 20.7689C5.11594 20.5373 5 20.2671 5 19.9583V8.37809C5 8.06929 5.11594 7.79908 5.34783 7.56748C5.57971 7.33587 5.85024 7.22007 6.15942 7.22007H13.9855L12.8261 8.37809H6.15942V19.9583H17.7536V13.2418L18.913 12.0838V19.9583C18.913 20.2671 18.7971 20.5373 18.5652 20.7689C18.3333 21.0005 18.0628 21.1163 17.7536 21.1163H6.15942ZM15.4734 7.37448L16.3043 8.18509L10.7971 13.6664V15.3262H12.4396L17.9662 9.80632L18.7778 10.6169L12.9227 16.4842H9.63768V13.2032L15.4734 7.37448ZM18.7778 10.6169L15.4734 7.37448L17.4058 5.44444C17.6248 5.2257 17.8973 5.11633 18.2234 5.11633C18.5495 5.11633 18.8244 5.23214 19.0483 5.46374L20.6715 7.10427C20.8905 7.33587 21 7.60912 21 7.924C21 8.23887 20.8841 8.50604 20.6522 8.7255L18.7778 10.6169Z" fill="#53977C"/>
</g>
<defs>
<clipPath id="clip0_502_48">
<rect y="0.210815" width="26" height="25.811" rx="4" fill="white"/>
</clipPath>
</defs>
</svg>
